<svg xmlns="http://www.w3.org/2000/svg" version="1.1" xmlns:xlink="http://www.w3.org/1999/xlink" width="1500" height="1500" viewBox="0 0 1500 1500"><rect width="1500" height="1500" x="0" y="0" id="background" stroke="transparent" fill="#ffffff"></rect><svg xml:space="preserve" width="1000" height="1000" data-version="2" data-id="lg_f9mck9LUqq5SB6JA8A" viewBox="0 0 232 364" x="250" y="250"><rect width="100%" height="100%" fill="transparent"></rect><path d="M113.27 359.455q-54.94 0-82.91-20.54-27.97-20.55-27.97-52.72 0-28.71 27.72-28.71 5.45 0 8.91.49-2.47 7.43-1.48 20.79 1.48 28.71 22.52 45.54t57.17 16.83q32.67 0 52.23-15.34 19.55-15.35 19.55-45.05 0-19.3-8.66-33.16-8.67-13.86-24.75-25.74-16.09-11.88-45.79-28.22-33.66-18.81-52.97-32.91-19.3-14.11-30.69-32.43-11.38-18.31-11.38-43.56 0-40.59 29.7-60.88 29.7-20.3 75.24-20.3 44.55 0 71.53 16.34 26.97 16.33 26.97 45.04 0 20.79-19.8 22.77-3.96.99-6.43.99-2.97 0-8.91-.99 1.48-5.44 1.48-9.9 0-5.94-1.48-10.89-1.98-21.28-20.3-33.16-18.31-11.88-47.02-11.88-26.24 0-44.8 11.88t-18.56 38.61q0 18.81 9.4 32.92 9.41 14.1 25.25 24.99 15.84 10.89 45.04 27.23 31.19 16.83 51.48 31.68 20.3 14.85 32.67 34.65 12.38 19.8 12.38 46.03 0 23.76-11.63 44.06-11.64 20.29-37.38 32.92-25.74 12.62-66.33 12.62"></path><rect width="226.22" height="355.91" x="-113.11" y="-177.96" fill="none" rx="0" ry="0" transform="translate(116 182)"></rect></svg></svg>